<svg id="Layer_1" data-name="Layer 1" xmlns="http://www.w3.org/2000/svg" xmlns:xlink="http://www.w3.org/1999/xlink" viewBox="0 0 105.67 165.55"><defs><style>.cls-1{fill:#fc3;}.cls-2{fill:url(#radial-gradient);}.cls-3,.cls-4{fill:none;stroke:#000;}.cls-4{stroke-miterlimit:10;}</style><radialGradient id="radial-gradient" cx="54.21" cy="117.58" r="41.64" gradientUnits="userSpaceOnUse"><stop offset="0" stop-color="#cec7cc"/><stop offset="0.05" stop-color="#c8bec9"/><stop offset="0.38" stop-color="#9f81b5"/><stop offset="0.66" stop-color="#8155a6"/><stop offset="0.87" stop-color="#6f399c"/><stop offset="1" stop-color="#682f99"/></radialGradient></defs><title>checkin_1</title><path class="cls-1" d="M104.81,23.69a95.63,95.63,0,0,1,.31,11.52l-2.39.33a78.74,78.74,0,0,0-.1-10.06c-.73-10.13-3.19-19.82-6-23.43l-.26-1,.15.09,1.73,1.43.74.87.69,1,.65,1.1.6,1.2L101.49,8,102,9.42l.49,1.52.46,1.62.41,1.71.7,3.62Z"/><path d="M105.12,35.21v0a6.16,6.16,0,0,1-2.39.31Z"/><path class="cls-1" d="M105.12,35.23,102.45,116l-1.38.36-1,.25,2.63-81.11A6.16,6.16,0,0,0,105.12,35.23Z"/><path class="cls-1" d="M102.63,25.48a78.74,78.74,0,0,1,.1,10.06l-38.07,1L9.92,38C10.33,23,7.69,4.55,5.08,2.7c0,0,0-.09,0-.09l89.48-2h.22a3.65,3.65,0,0,1,1.82,1.42C99.44,5.66,101.9,15.35,102.63,25.48Z"/><path class="cls-1" d="M20.09,144l0,0,.22.28v0l2.71,3.06.79.76a39,39,0,0,0,13.5,8.31,41.21,41.21,0,0,0,12.48,2.44c1.15,0,2.31,0,3.47,0a43.22,43.22,0,0,0,4.82-.48c.7-.1,1.41-.23,2.11-.37a44.93,44.93,0,0,0,9.11-2.91,45.7,45.7,0,0,0,13.76-9.37l.81-.82,3.52-4.15a40.7,40.7,0,0,0,7.91-17.66c.14-.69.26-1.38.36-2.08,1.2-8.22.13-16.7-3.48-23.41A38.37,38.37,0,0,0,78.61,82.3h0l-.21-.13-.12-.08h0a41.11,41.11,0,0,0-22.56-5.82c-9.95,0-22.09,4.94-30.51,13.39s-13.1,20.45-12.95,30.19c0,1.1,0,2.21.09,3.34A39.16,39.16,0,0,0,20.09,144ZM102.73,35.54l-2.63,81.11c0,.59,0,1.19-.07,1.79-.6,10-5.66,21.68-14.08,30s-20.2,13.42-30.34,14.11c-.6,0-1.21.07-1.8.08a36.94,36.94,0,0,1-5.75-.07A44.57,44.57,0,0,1,22,151.07c-.47-.45-.94-.91-1.38-1.38C12.8,141.51,8.58,129.94,9,120l.19-16.83L9.92,38l54.74-1.45Z"/><path d="M102.45,116v0h0Z"/><path d="M102.45,116l0,0c-.4.08-.85.19-1.35.32Z"/><path class="cls-1" d="M102.42,116.08h0c0,.08-.1.16-.26.23Z"/><path class="cls-1" d="M102.42,116.08l-.23.22h0a6.33,6.33,0,0,1-2.08.34l1-.25C101.57,116.27,102,116.16,102.42,116.08Z"/><path class="cls-1" d="M102.19,116.3c.16-.07.25-.15.26-.23a48.82,48.82,0,0,1-3.93,17.52A51.66,51.66,0,0,1,87.4,149.91,52.43,52.43,0,0,1,70.93,161a50.83,50.83,0,0,1-17.68,4c.08,0,.17-.13.24-.3a5.85,5.85,0,0,0,.32-2c.59,0,1.2,0,1.8-.08,10.14-.69,21.92-5.75,30.34-14.11s13.48-20,14.08-30c0-.6.06-1.2.07-1.79a6.33,6.33,0,0,0,2.08-.34Z"/><path d="M96.37,1,95.76.87,94.83.63h.09l1,.18.06,0Z"/><path d="M96.37,1,96,.83A2.09,2.09,0,0,1,96.37,1Z"/><path d="M96,.83l-.06,0h0Z"/><path d="M95.91.81l-1-.18A2.92,2.92,0,0,1,95.91.81Z"/><polygon points="95.76 0.87 94.81 0.63 94.83 0.63 94.83 0.63 95.76 0.87"/><path d="M94.92.63h-.09L94.64.58Z"/><path class="cls-2" d="M92.21,97.62c3.61,6.71,4.68,15.19,3.48,23.41-.1.7-.22,1.39-.36,2.08a40.7,40.7,0,0,1-7.91,17.66l-3.52,4.15-.81.82a45.7,45.7,0,0,1-13.76,9.37A44.93,44.93,0,0,1,60.22,158c-.7.14-1.41.27-2.11.37a43.22,43.22,0,0,1-4.82.48c-1.16,0-2.32,0-3.47,0a41.21,41.21,0,0,1-12.48-2.44,39,39,0,0,1-13.5-8.31l-.79-.76-2.71-3.06.12-.12L20.1,144h0a39.16,39.16,0,0,1-7.74-20.82c-.08-1.13-.11-2.24-.09-3.34-.15-9.74,4.54-21.74,13-30.19S45.77,76.32,55.72,76.28A41.11,41.11,0,0,1,78.28,82.1l.08.47.25-.27A38.37,38.37,0,0,1,92.21,97.62Z"/><path d="M78.61,82.3h0l-.21-.13Z"/><path d="M78.61,82.3l-.25.27-.08-.47.12.07Z"/><path d="M78.4,82.17l-.12-.07h0Z"/><path class="cls-1" d="M53.81,162.67l-.09.32-.54,2a48.33,48.33,0,0,1-17.75-2.56A45.25,45.25,0,0,1,19,152.57a44.11,44.11,0,0,1-5.42-6.16,45.16,45.16,0,0,1-8.54-27c.13.37,2.3.72,3.89.62-.39,10,3.83,21.53,11.63,29.71.44.47.91.93,1.38,1.38A44.57,44.57,0,0,0,48.06,162.6,36.94,36.94,0,0,0,53.81,162.67Z"/><path class="cls-1" d="M53.72,163l.09-.32a5.85,5.85,0,0,1-.32,2l-.22.22C53.38,164.47,53.54,163.7,53.72,163Z"/><path d="M53.18,165l.54-2c-.18.71-.34,1.48-.45,1.93h0Z"/><path class="cls-1" d="M53.27,164.92l.22-.22c-.07.17-.16.28-.24.3s0-.05,0-.08Z"/><path d="M53.27,164.92s0,.06,0,.08h-.07Z"/><path d="M53.23,165h0Z"/><path d="M20.46,144.18l-.12.12-.23-.26v0Z"/><polygon points="20.11 144.04 20.34 144.3 20.33 144.32 20.11 144.04"/><path d="M20.1,144v0l0,0Z"/><path class="cls-1" d="M13.62,146.41l-4.8-6.59-.39-.54-.38-.55a44.44,44.44,0,0,1-3-5.17c-.19-.4-.38-.79-.56-1.19A44,44,0,0,1,.55,113.68v0l4.53,5.7A45.16,45.16,0,0,0,13.62,146.41Z"/><path class="cls-1" d="M5.08,2.7C7.69,4.55,10.33,23,9.92,38l-4-.29C6.31,24,4.16,6.88,1.58,5.9A3.2,3.2,0,0,1,2.77,3C4.36,2.3,4.94,2.65,5.08,2.7Z"/><path class="cls-1" d="M9.92,38l-.76,65.15L9,120l-3.89-.62.13-11.46L6,37.71A13.62,13.62,0,0,0,9.92,38Z"/><path d="M9.92,38a13.62,13.62,0,0,1-4-.29Z"/><path class="cls-1" d="M5.08,119.36,9,120C7.38,120.08,5.21,119.73,5.08,119.36Z"/><path class="cls-1" d="M1.58,5.9C4.16,6.88,6.31,24,6,37.71L5.21,107.9l-.13,11.46-4.53-5.7v-.17Z"/><path d="M5,133.56a44.44,44.44,0,0,0,3,5.17A40.75,40.75,0,0,1,5,133.56Z"/><path d="M4.47,132.37c-.28-.61-.55-1.23-.8-1.85a44.47,44.47,0,0,1-3.17-17l.05.14A44,44,0,0,0,4.47,132.37Z"/><path class="cls-3" d="M94.83.63h0"/><path class="cls-3" d="M95.91.81a2.92,2.92,0,0,0-1-.18"/><path class="cls-3" d="M96.37,1A2.09,2.09,0,0,0,96,.83"/><path class="cls-3" d="M53.18,165h0"/><line class="cls-3" x1="94.81" y1="0.63" x2="94.64" y2="0.58"/><path class="cls-3" d="M105.12,35.23s0,0,0,0"/><line class="cls-3" x1="0.55" y1="113.66" x2="0.5" y2="113.54"/><path class="cls-3" d="M8.43,139.28l-.38-.55a40.75,40.75,0,0,1-3-5.17"/><path class="cls-4" d="M4.47,132.37c-.28-.61-.55-1.23-.8-1.85a44.47,44.47,0,0,1-3.17-17l.05.14"/><path class="cls-3" d="M13.62,146.41l-4.8-6.59-.39-.54-.38-.55a44.44,44.44,0,0,1-3-5.17c-.19-.4-.38-.79-.56-1.19A44,44,0,0,1,.55,113.68v0"/><line class="cls-4" x1="53.18" y1="165.01" x2="53.27" y2="164.92"/><line class="cls-4" x1="102.42" y1="116.08" x2="102.45" y2="116.04"/><path class="cls-3" d="M9,120c-.39,10,3.83,21.53,11.63,29.71.44.47.91.93,1.38,1.38A44.57,44.57,0,0,0,48.06,162.6a36.94,36.94,0,0,0,5.75.07"/><path class="cls-3" d="M53.72,163l-.54,2a48.33,48.33,0,0,1-17.75-2.56A45.25,45.25,0,0,1,19,152.57a44.11,44.11,0,0,1-5.42-6.16,45.16,45.16,0,0,1-8.54-27"/><path class="cls-3" d="M101.07,116.4c.5-.13,1-.24,1.35-.32h0a48.82,48.82,0,0,1-3.93,17.52A51.66,51.66,0,0,1,87.4,149.91,52.43,52.43,0,0,1,70.93,161a50.83,50.83,0,0,1-17.68,4s0-.05,0-.08h0c.11-.45.27-1.22.45-1.93l.09-.32c.59,0,1.2,0,1.8-.08,10.14-.69,21.92-5.75,30.34-14.11s13.48-20,14.08-30c0-.6.06-1.2.07-1.79"/><path class="cls-3" d="M102.45,116v0"/><path class="cls-3" d="M53.25,165h-.07"/><polyline class="cls-3" points="5.08 119.36 0.55 113.66 0.55 113.49 1.58 5.9"/><path class="cls-3" d="M5.08,2.7s0-.09,0-.09l89.48-2h.22a3.65,3.65,0,0,1,1.82,1.42"/><polyline class="cls-3" points="102.73 35.54 64.66 36.55 9.92 38"/><polyline class="cls-4" points="78.28 82.1 78.28 82.09 78.4 82.17"/><line class="cls-3" x1="19.66" y1="143.45" x2="19.86" y2="143.72"/><path class="cls-4" d="M20.09,144a39.16,39.16,0,0,1-7.74-20.82c-.08-1.13-.11-2.24-.09-3.34-.15-9.74,4.54-21.74,13-30.19S45.77,76.32,55.72,76.28A41.11,41.11,0,0,1,78.28,82.1"/><path class="cls-4" d="M78.61,82.3a38.37,38.37,0,0,1,13.6,15.32c3.61,6.71,4.68,15.19,3.48,23.41-.1.7-.22,1.39-.36,2.08a40.7,40.7,0,0,1-7.91,17.66l-3.52,4.15-.81.82a45.7,45.7,0,0,1-13.76,9.37A44.93,44.93,0,0,1,60.22,158c-.7.14-1.41.27-2.11.37a43.22,43.22,0,0,1-4.82.48c-1.16,0-2.32,0-3.47,0a41.21,41.21,0,0,1-12.48-2.44,39,39,0,0,1-13.5-8.31l-.79-.76-2.71-3.06"/><polyline class="cls-4" points="20.34 144.3 20.33 144.32 20.11 144.04"/><polyline class="cls-4" points="78.4 82.17 78.61 82.3 78.61 82.3 78.36 82.57 78.28 82.1"/><path class="cls-3" d="M78.4,82.17l-.12-.07"/><path class="cls-3" d="M9.92,38l-.76,65.15L9,120l-3.89-.62.13-11.46L6,37.71A13.62,13.62,0,0,0,9.92,38Z"/><path class="cls-3" d="M105.12,35.23,102.45,116l-1.38.36-1,.25,2.63-81.11A6.16,6.16,0,0,0,105.12,35.23Z"/><line class="cls-3" x1="105.12" y1="35.23" x2="105.12" y2="35.21"/><line class="cls-3" x1="78.28" y1="82.09" x2="77.96" y2="81.89"/><line class="cls-3" x1="20.09" y1="144.02" x2="19.86" y2="143.72"/><path class="cls-3" d="M105.12,35.21l-2.39.33a78.74,78.74,0,0,0-.1-10.06c-.73-10.13-3.19-19.82-6-23.43l-.26-1,.15.09,1.73,1.43.74.87.69,1,.65,1.1.6,1.2L101.49,8,102,9.42l.49,1.52.46,1.62.41,1.71.7,3.62.73,5.8A95.63,95.63,0,0,1,105.12,35.21Z"/><polyline class="cls-3" points="94.64 0.58 94.92 0.63 95.91 0.81 95.94 0.81 95.97 0.83 96.37 1.02"/><polyline class="cls-4" points="20.11 144.04 20.09 144.02 20.1 144.02 20.45 144.18 20.34 144.3"/><line class="cls-3" x1="20.34" y1="144.3" x2="20.11" y2="144.04"/><path class="cls-3" d="M9.92,38l-4-.29C6.31,24,4.16,6.88,1.58,5.9A3.2,3.2,0,0,1,2.77,3c1.59-.73,2.17-.38,2.31-.33C7.69,4.55,10.33,23,9.92,38Z"/></svg>