<svg id="Layer_1" data-name="Layer 1" xmlns="http://www.w3.org/2000/svg" xmlns:xlink="http://www.w3.org/1999/xlink" viewBox="0 0 105.72 165.55"><defs><style>.cls-1{fill:#fc3;}.cls-2{fill:url(#radial-gradient);}.cls-3,.cls-4{fill:none;stroke:#000;}.cls-4{stroke-miterlimit:10;}</style><radialGradient id="radial-gradient" cx="51.47" cy="117.58" r="41.64" gradientUnits="userSpaceOnUse"><stop offset="0" stop-color="#cec7cc"/><stop offset="0.05" stop-color="#c8bec9"/><stop offset="0.38" stop-color="#9f81b5"/><stop offset="0.66" stop-color="#8155a6"/><stop offset="0.87" stop-color="#6f399c"/><stop offset="1" stop-color="#682f99"/></radialGradient></defs><title>checkin_1</title><path d="M.55,35.21v0a6.2,6.2,0,0,0,2.39.31Z"/><path class="cls-1" d="M.55,35.23,3.22,116l1.39.36,1,.25L2.94,35.54A6.2,6.2,0,0,1,.55,35.23Z"/><path class="cls-1" d="M95.76,38C95.34,23,98,4.55,100.59,2.7c0,0,0-.09,0-.09L11.08.63h-.22l-.11,0h0A3.86,3.86,0,0,0,9,2.05c-2.8,3.61-5.27,13.3-6,23.43a78.74,78.74,0,0,0-.1,10.06l38.07,1Z"/><path d="M3.22,116.07h0l0,0Z"/><path d="M3.22,116l0,0c.39.08.85.19,1.35.32Z"/><path class="cls-1" d="M3.22,116.07c0,.08.1.16.27.23l-.23-.22Z"/><path class="cls-1" d="M4.61,116.4c-.5-.13-1-.24-1.35-.32l.23.22h0a6.45,6.45,0,0,0,2.09.34Z"/><path class="cls-1" d="M9.15,1.11,7.42,2.54l-.74.87L6,4.39l-.64,1.1-.61,1.2L4.18,8,3.65,9.42l-.49,1.52-.45,1.62-.42,1.71-.7,3.62-.73,5.8A97.73,97.73,0,0,0,.55,35.21l2.39.33A78.74,78.74,0,0,1,3,25.48C3.77,15.35,6.24,5.66,9,2.05l.27-1Z"/><path class="cls-1" d="M9.31,1,9.67.84A3,3,0,0,0,9.31,1Z"/><path class="cls-1" d="M9.74.81l-.05,0,.07,0Z"/><path d="M10.14.81,9.31,1Z"/><polygon points="10.14 0.81 10.75 0.66 10.75 0.66 10.14 0.81"/><path d="M10.76.63a3,3,0,0,0-1,.18Z"/><path d="M10.76.63l-1,.18-.07,0h0L9.31,1l.83-.21.61-.15.1,0Z"/><polygon class="cls-1" points="10.86 0.63 10.85 0.63 10.85 0.63 10.75 0.66 10.86 0.63"/><path d="M10.86.63,11,.58l-.28.05h.1Z"/><polygon class="cls-1" points="10.86 0.63 10.85 0.63 10.86 0.63 10.87 0.63 10.86 0.63"/><polygon points="11.04 0.58 10.86 0.63 10.87 0.63 11.04 0.58"/><path class="cls-2" d="M50,76.28a41.14,41.14,0,0,0-22.5,5.78l-.06,0h0l-.07.47-.25-.27A38.39,38.39,0,0,0,13.46,97.62C9.86,104.33,8.79,112.81,10,121c.1.7.21,1.39.35,2.08a40.7,40.7,0,0,0,7.91,17.66l3.52,4.15.82.82a45.65,45.65,0,0,0,13.75,9.37A44.93,44.93,0,0,0,45.45,158c.7.14,1.41.27,2.12.37a43,43,0,0,0,4.81.48q1.74.07,3.48,0a41.09,41.09,0,0,0,12.47-2.44,38.91,38.91,0,0,0,13.5-8.31l.79-.76,2.71-3.06-.11-.12.36-.16h0a39.08,39.08,0,0,0,7.74-20.82c.08-1.13.12-2.24.09-3.34.16-9.74-4.54-21.74-13-30.19S59.91,76.32,50,76.28Z"/><polygon points="27.07 82.3 27.28 82.17 27.06 82.3 27.07 82.3"/><path d="M27.07,82.3l.25.27.07-.47a.41.41,0,0,0-.11.07Z"/><path d="M27.39,82.1h0l-.11.08A.41.41,0,0,1,27.39,82.1Z"/><path class="cls-1" d="M27.39,82.09h0l.06,0Z"/><path class="cls-1" d="M52,163c0-.11-.06-.22-.08-.32a5.88,5.88,0,0,0,.31,2l.22.22C52.3,164.47,52.13,163.7,52,163Z"/><path d="M52.49,165,52,163c.18.71.35,1.48.45,1.93h0Z"/><path class="cls-1" d="M5.58,116.65a6.45,6.45,0,0,1-2.09-.34h0c-.17-.07-.26-.15-.27-.23a48.62,48.62,0,0,0,3.94,17.52,51.46,51.46,0,0,0,11.11,16.32A52.43,52.43,0,0,0,34.74,161a50.83,50.83,0,0,0,17.68,4c-.08,0-.16-.13-.24-.3a5.88,5.88,0,0,1-.31-2c-.6,0-1.2,0-1.81-.08-10.14-.69-21.92-5.75-30.34-14.11s-13.48-20-14.08-30C5.6,117.84,5.58,117.24,5.58,116.65Z"/><path class="cls-1" d="M52.4,164.92l-.22-.22c.08.17.16.28.24.3s0-.05,0-.08Z"/><path d="M52.49,165h0Z"/><path d="M52.41,164.92s0,.06,0,.08h.07Z"/><path class="cls-1" d="M96.7,120c.39,10-3.82,21.53-11.63,29.71q-.66.7-1.38,1.38A44.52,44.52,0,0,1,57.61,162.6a36.82,36.82,0,0,1-5.74.07c0,.1.05.21.08.32l.54,2a48.3,48.3,0,0,0,17.75-2.56,45.25,45.25,0,0,0,16.39-9.88,43.47,43.47,0,0,0,5.42-6.16,45.1,45.1,0,0,0,8.54-27C100.46,119.73,98.3,120.08,96.7,120Z"/><polygon points="85.35 144.32 85.57 144.04 85.33 144.3 85.35 144.32"/><path d="M85.33,144.3l.24-.26v0l-.36.16Z"/><path d="M85.58,144v0Z"/><path class="cls-1" d="M93.32,123.2A39.08,39.08,0,0,1,85.58,144v0l-.22.28,0,0-2.71,3.06-.79.76a38.91,38.91,0,0,1-13.5,8.31,41.09,41.09,0,0,1-12.47,2.44q-1.74.07-3.48,0a43,43,0,0,1-4.81-.48c-.71-.1-1.42-.23-2.12-.37a44.93,44.93,0,0,1-9.11-2.91,45.65,45.65,0,0,1-13.75-9.37l-.82-.82-3.52-4.15a40.7,40.7,0,0,1-7.91-17.66c-.14-.69-.25-1.38-.35-2.08-1.2-8.22-.13-16.7,3.47-23.41A38.39,38.39,0,0,1,27.07,82.3h0l.22-.13.11-.08.06,0A41.14,41.14,0,0,1,50,76.28c10,0,22.09,4.94,30.51,13.39s13.11,20.45,13,30.19C93.44,121,93.4,122.07,93.32,123.2ZM2.94,35.54l2.64,81.11c0,.59,0,1.19.06,1.79.6,10,5.66,21.68,14.08,30s20.2,13.42,30.34,14.11c.61,0,1.21.07,1.81.08a36.82,36.82,0,0,0,5.74-.07,44.52,44.52,0,0,0,26.08-11.53q.72-.67,1.38-1.38c7.81-8.18,12-19.75,11.63-29.71l-.19-16.83L95.76,38,41,36.55Z"/><path class="cls-1" d="M100.59,2.7C98,4.55,95.34,23,95.76,38l3.95-.29C99.36,24,101.52,6.88,104.09,5.9A3.16,3.16,0,0,0,102.9,3C101.31,2.3,100.74,2.65,100.59,2.7Z"/><path class="cls-1" d="M96.7,120c1.6.1,3.76-.25,3.89-.62Z"/><path class="cls-1" d="M104.09,5.9c-2.57,1-4.73,18.08-4.38,31.81l.76,70.19.12,11.46,4.54-5.7v-.17Z"/><path d="M95.76,38a13.5,13.5,0,0,0,3.95-.29Z"/><path class="cls-1" d="M100.47,107.9l-.76-70.19a13.5,13.5,0,0,1-3.95.29l.75,65.15L96.7,120l3.89-.62Z"/><path d="M100.64,133.56a44.44,44.44,0,0,1-3,5.17A39.59,39.59,0,0,0,100.64,133.56Z"/><path class="cls-1" d="M105.13,113.68v0l-4.54,5.7a45.1,45.1,0,0,1-8.54,27.05l4.81-6.59.38-.54.38-.55a44.44,44.44,0,0,0,3-5.17c.19-.4.38-.79.56-1.19A44.13,44.13,0,0,0,105.13,113.68Z"/><polygon class="cls-1" points="105.13 113.66 105.13 113.68 105.15 113.61 105.13 113.66"/><path d="M105.13,113.68a44.13,44.13,0,0,1-3.93,18.69c.28-.61.55-1.23.8-1.85a44.23,44.23,0,0,0,3.17-17l0,.06Z"/><polygon points="105.17 113.55 105.17 113.54 105.15 113.61 105.17 113.55"/><path class="cls-3" d="M9.67.84A3,3,0,0,0,9.31,1"/><path class="cls-3" d="M9.76.81l-.07,0"/><path class="cls-3" d="M10.85.63h-.09"/><path class="cls-3" d="M52.44,165h.05"/><polyline class="cls-3" points="11.04 0.58 10.87 0.63 10.86 0.63"/><path class="cls-3" d="M.55,35.21v0"/><polyline class="cls-3" points="105.17 113.55 105.17 113.55 105.15 113.61 105.13 113.66"/><path class="cls-3" d="M100.64,133.56a39.59,39.59,0,0,1-3,5.17c-.12.18-.24.36-.38.55"/><path class="cls-4" d="M101.2,132.37c.28-.61.55-1.23.8-1.85a44.23,44.23,0,0,0,3.17-17h0l0,.07,0,.07"/><path class="cls-3" d="M92.05,146.41l4.81-6.59.38-.54.38-.55a44.44,44.44,0,0,0,3-5.17c.19-.4.38-.79.56-1.19a44.13,44.13,0,0,0,3.93-18.69v0"/><line class="cls-4" x1="52.49" y1="165.01" x2="52.41" y2="164.92"/><line class="cls-4" x1="3.26" y1="116.08" x2="3.22" y2="116.04"/><path class="cls-3" d="M96.7,120c.39,10-3.82,21.53-11.63,29.71q-.66.7-1.38,1.38A44.52,44.52,0,0,1,57.61,162.6a36.82,36.82,0,0,1-5.74.07"/><path class="cls-3" d="M52,163l.54,2a48.3,48.3,0,0,0,17.75-2.56,45.25,45.25,0,0,0,16.39-9.88,43.47,43.47,0,0,0,5.42-6.16,45.1,45.1,0,0,0,8.54-27"/><path class="cls-3" d="M4.61,116.4c-.5-.13-1-.24-1.35-.32h0a48.62,48.62,0,0,0,3.94,17.52,51.46,51.46,0,0,0,11.11,16.32A52.43,52.43,0,0,0,34.74,161a50.83,50.83,0,0,0,17.68,4s0-.05,0-.08"/><path class="cls-3" d="M51.87,162.67c-.6,0-1.2,0-1.81-.08-10.14-.69-21.92-5.75-30.34-14.11s-13.48-20-14.08-30c0-.6-.06-1.2-.06-1.79"/><path class="cls-3" d="M52.4,164.92c-.1-.45-.27-1.22-.45-1.93"/><line class="cls-4" x1="52.41" y1="164.92" x2="52.4" y2="164.92"/><line class="cls-3" x1="3.22" y1="116.07" x2="3.22" y2="116.04"/><path class="cls-3" d="M52.49,165h-.07"/><polyline class="cls-3" points="100.59 119.36 105.13 113.66 105.13 113.49 104.09 5.9"/><path class="cls-3" d="M10.75.66A3.86,3.86,0,0,0,9,2.05"/><path class="cls-3" d="M100.59,2.7s0-.09,0-.09L11.08.63h-.22"/><polyline class="cls-3" points="2.94 35.54 41.01 36.55 95.75 38"/><line class="cls-4" x1="27.39" y1="82.1" x2="27.39" y2="82.09"/><line class="cls-3" x1="85.81" y1="143.72" x2="86.02" y2="143.45"/><path class="cls-4" d="M85.58,144a39.08,39.08,0,0,0,7.74-20.82c.08-1.13.12-2.24.09-3.34.16-9.74-4.54-21.74-13-30.19S59.91,76.32,50,76.28a41.14,41.14,0,0,0-22.5,5.78"/><path class="cls-4" d="M27.07,82.3A38.39,38.39,0,0,0,13.46,97.62C9.86,104.33,8.79,112.81,10,121c.1.7.21,1.39.35,2.08a40.7,40.7,0,0,0,7.91,17.66l3.52,4.15.82.82a45.65,45.65,0,0,0,13.75,9.37A44.93,44.93,0,0,0,45.45,158c.7.14,1.41.27,2.12.37a43,43,0,0,0,4.81.48q1.74.07,3.48,0a41.09,41.09,0,0,0,12.47-2.44,38.91,38.91,0,0,0,13.5-8.31l.79-.76,2.71-3.06"/><polyline class="cls-4" points="85.33 144.3 85.35 144.32 85.57 144.04"/><polyline class="cls-4" points="27.07 82.3 27.32 82.57 27.39 82.1"/><path class="cls-3" d="M27.39,82.1a.41.41,0,0,0-.11.07"/><path class="cls-3" d="M95.76,38l.75,65.15L96.7,120l3.89-.62-.12-11.46-.76-70.19A13.5,13.5,0,0,1,95.76,38Z"/><path class="cls-3" d="M5.58,116.65,2.94,35.54a6.2,6.2,0,0,1-2.39-.31L3.22,116l1.39.36"/><line class="cls-3" x1="0.55" y1="35.21" x2="0.55" y2="35.23"/><polyline class="cls-3" points="27.72 81.89 27.45 82.06 27.39 82.09"/><line class="cls-3" x1="85.81" y1="143.72" x2="85.58" y2="144.02"/><path class="cls-3" d="M.55,35.21l2.39.33A78.74,78.74,0,0,1,3,25.48C3.77,15.35,6.24,5.66,9,2.05l.27-1-.16.09L7.42,2.54l-.74.87L6,4.39l-.64,1.1-.61,1.2L4.18,8,3.65,9.42l-.49,1.52-.45,1.62-.42,1.71-.7,3.62-.73,5.8A97.73,97.73,0,0,0,.55,35.21Z"/><polyline class="cls-3" points="9.3 1.02 9.67 0.84 9.69 0.84 9.74 0.81 9.77 0.81 10.76 0.64 11.04 0.58"/><polyline class="cls-4" points="85.57 144.04 85.58 144.02 85.58 144.02 85.22 144.18 85.33 144.3"/><line class="cls-3" x1="85.57" y1="144.04" x2="85.33" y2="144.3"/><path class="cls-3" d="M95.76,38l3.95-.29C99.36,24,101.52,6.88,104.09,5.9A3.16,3.16,0,0,0,102.9,3c-1.59-.73-2.16-.38-2.31-.33C98,4.55,95.34,23,95.76,38Z"/></svg>