<?xml version="1.0" encoding="utf-8"?>
<!-- Generator: Adobe Illustrator 19.0.0, SVG Export Plug-In . SVG Version: 6.00 Build 0)  -->
<svg version="1.1" id="Layer_1" xmlns="http://www.w3.org/2000/svg" xmlns:xlink="http://www.w3.org/1999/xlink" x="0px" y="0px"
	 viewBox="-164 42.3 512 512" style="enable-background:new -164 42.3 512 512;" xml:space="preserve">
<style type="text/css">
	.st0{fill:#FCD757;}
</style>
<g>
	<g>
		<path class="st0" d="M328.6,458.4c-35.4-29.7-139.7-117.1-187.5-159.8c25.9-23.7,62.1-59,97.4-93.4c40.3-39.3,78.5-76.5,95.7-91.1
			c8.8-7.4,13.8-18.3,13.8-29.8c0-14.4-7.5-27.3-20.1-34.3c-12.5-7-27.3-6.6-39.4,0.9C249.2,75.4,92,188.3,92,212.7
			c0,7.2-0.3,15.6-2.9,25.2c-11.8-20.2-18.5-38.6-18.5-46.6c0-15.2-51.6-64.7-153.3-147.1c-4.2-3.4-11.3-2.2-15.2,1.7
			c-4.2,4.2-4.2,10.9,0,15.1L3.5,162.4c4.2,4.2,4.2,10.9,0,15.1c-4,4-11,4-15.1,0L-112.9,76.1c-4.2-4.2-10.9-4.2-15.1,0l-1.8,1.8
			c-4.2,4.2-4.2,10.9,0,15.1l101.3,101.4c4.2,4.2,4.2,10.9,0,15.1c-4,4-11,4-15.1,0l-101.3-101.4c-4.1-4.1-11.8-3.2-16,0.9
			c-3.9,3.9-4.2,10-0.8,14.3c82.3,101.8,131.8,153.4,147,153.4c9.1,0,31.8,8.8,55.2,23.9c-47.3,42.1-143.7,123-185.2,157.7
			c-12.3,10.3-19.4,25.5-19.4,41.6c0,29.9,24.3,54.3,54.3,54.3c16.1,0,31.3-7.1,41.6-19.4c35.6-42.6,119-142,160.2-188.1
			c42.5,47.6,130.4,152.6,160.2,188.2c10.3,12.3,25.4,19.4,41.6,19.4c29.9,0,54.3-24.4,54.3-54.3C348,483.8,340.9,468.7,328.6,458.4
			z"/>
	</g>
</g>
</svg>
