<?xml version="1.0" encoding="utf-8"?>
<!-- Generator: Adobe Illustrator 19.0.0, SVG Export Plug-In . SVG Version: 6.00 Build 0)  -->
<svg version="1.1" id="Layer_1" xmlns="http://www.w3.org/2000/svg" xmlns:xlink="http://www.w3.org/1999/xlink" x="0px" y="0px"
	 viewBox="-164 42.3 512 512" style="enable-background:new -164 42.3 512 512;" xml:space="preserve">
<style type="text/css">
	.st0{fill:#FCD757;}
</style>
<path class="st0" d="M348,188.3v-10.9c0-74.5-60.6-135.1-135.1-135.1H-27.9c-74.5,0-135.1,60.6-135.1,135.1v10.9
	c0,13.3,7.5,24.9,18.5,30.9c-27,31-24,77.5,6.4,104.9c-26.7,18.5-33.6,54.2-16.8,81c-4.8,2.5-8.1,7.5-8.1,13.3v30
	c0,41.4,33.7,75,75.1,75h360.7c41.4,0,75.1-33.6,75.1-75v-30c0-6.7-4.4-12.4-10.5-14.3c15.6-26.1,9.2-60.2-15.8-78.8
	c16-13.8,26.2-34.2,26.2-56.9c0-18.8-7-36-18.5-49.2C340.5,213.2,348,201.6,348,188.3z M-133,177.4c0-58,47.2-105.1,105.1-105.1
	h240.8c58,0,105.1,47.2,105.1,105.1v10.9c0,2.8-2.2,5-5,5c-12.1,0-408.9,0-441,0c-2.8,0-5-2.3-5-5V177.4z M318,268.3
	c0,24.8-20.2,45-45.1,45H-87.9c-24.9,0-45.1-20.2-45.1-45s20.2-45,45.1-45H57.9l86.4,57.5c5,3.3,11.6,3.3,16.6,0l86.4-57.5h25.5
	C297.8,223.3,318,243.5,318,268.3z M112.1,223.3h81.1l-40.6,27L112.1,223.3z M318,448.3c0,24.8-20.2,45-45.1,45H-87.9
	c-24.9,0-45.1-20.2-45.1-45v-15h29.1c14.5,0,28.3-5.3,39.1-14.4c22.6,19.3,55.6,19.2,78.2,0C35.9,438,68.8,438,91,419.3
	c22.2,18.6,55.1,18.7,77.7-0.5c22.6,19.3,55.6,19.2,78.2,0c20.2,17.3,38.9,14.4,71.2,14.4V448.3z M285.9,343.3
	c16.6,0,30.1,13.5,30.1,30s-13.5,30-30.1,30c-10.7,0-20.7-5.8-26.1-15c-5.8-10-20.2-10-26,0c-11.6,20-40.6,20-52.2,0
	c-5.8-10-20.2-10-26,0c-11.3,19.5-39.8,20.3-51.9,0.6c-5.8-9.6-19.8-9.6-25.6,0c-12,19.8-40.6,19-51.9-0.6c-5.8-10-20.2-10-26,0
	c-11.6,20-40.6,20-52.2,0c-5.8-10-20.2-10-26,0c-5.4,9.3-15.4,15-26.1,15c-16.6,0-30.1-13.5-30.1-30s13.5-30,30.1-30H285.9z"/>
</svg>
